<?xml version="1.0" standalone="no"?><!DOCTYPE svg PUBLIC "-//W3C//DTD SVG 1.1//EN" "http://www.w3.org/Graphics/SVG/1.1/DTD/svg11.dtd"><svg t="1564213520603" class="icon" viewBox="0 0 1024 1024" version="1.1" xmlns="http://www.w3.org/2000/svg" p-id="1157" xmlns:xlink="http://www.w3.org/1999/xlink" width="16" height="16"><defs><style type="text/css"></style></defs><path d="M646.246667 219.58a21.333333 21.333333 0 0 1 30.173333 0l298.666667 298.666667a21.333333 21.333333 0 0 1 0 30.173333l-298.666667 298.666667a21.333333 21.333333 0 0 1-30.173333-30.173334L929.833333 533.333333 646.246667 249.753333a21.333333 21.333333 0 0 1 0-30.173333z m-268.493334 597.333333L94.173333 533.333333l283.58-283.58a21.333333 21.333333 0 0 0-30.173333-30.173333l-298.666667 298.666667a21.333333 21.333333 0 0 0 0 30.173333l298.666667 298.666667a21.333333 21.333333 0 1 0 30.173333-30.173334z" fill="#5C5C66" p-id="1158"></path></svg>