<?xml version="1.0" standalone="no"?><!DOCTYPE svg PUBLIC "-//W3C//DTD SVG 1.1//EN" "http://www.w3.org/Graphics/SVG/1.1/DTD/svg11.dtd"><svg class="icon" width="16px" height="15.83px" viewBox="0 0 1035 1024" version="1.1" xmlns="http://www.w3.org/2000/svg"><path d="M568.888889 466.488889m-56.888889 0a56.888889 56.888889 0 1 0 113.77777801 0 56.888889 56.888889 0 1 0-113.77777801 0Z" fill="#F5222D" /><path d="M561.34542201 1024C251.335111 1024 0 772.4032 0 462.051556h99.794489c0 255.1808 206.6432 462.051556 461.55093299 462.051555V1024z" fill="#FADB14" /><path d="M561.34542201 924.06897801C305.98257799 921.452089 99.794489 715.605333 99.794489 462.051556S305.98257799 2.65102201 561.34542201 0.022756V99.896889c-199.79377799 0-361.756444 162.133333-361.75644402 362.154667 0 200.009956 161.962667 362.143289 361.75644402 362.143288v99.87413401z" fill="#2F54EB" /><path d="M923.113244 462.051556H823.296c0-144.839111-117.282133-262.2464-261.961956-262.2464-144.67982199 0-261.961956 117.418667-261.961955 262.2464 0 144.839111 117.282133 262.2464 261.961955 262.2464v99.896888c-199.79377799 0-361.756444-162.133333-361.756444-362.15466599 0-199.99857799 161.962667-362.143289 361.756444-362.14328901 199.79377799 0 361.76782201 162.133333 361.767823 362.154667z" fill="#13C2C2" /><path d="M561.34542201 724.297956c-144.67982199 0-261.961956-117.418667-261.96195501-262.25777799 0-144.827733 117.282133-262.23502201 261.96195501-262.23502201 144.67982199 0 261.961956 117.418667 261.96195598 262.2464 0 144.839111-117.282133 262.2464-261.961956 262.2464z m0-99.908267c89.565867 0 162.167467-72.681244 162.16746699-162.338133 0-89.656889-72.59022199-162.349511-162.16746701-162.349512-89.554489 0-162.167467 72.69262199-162.16746599 162.349512s72.61297799 162.338133 162.16746599 162.338133z" fill="#FADB14" /></svg>